HIERARCHY
ROOT Hips
{
	OFFSET -0.179506 -22.333345 2.821913
	CHANNELS 6 Xposition Yposition Zposition Zrotation Yrotation Xrotation 
	JOINT LeftUpLeg
	{
		OFFSET 6.951974 -9.140623 -0.681533
		CHANNELS 3 Zrotation Yrotation Xrotation
		JOINT LeftLeg
		{
			OFFSET 3.427654 -37.519855 -0.449580
			CHANNELS 3 Zrotation Yrotation Xrotation
			JOINT LeftFoot
			{
				OFFSET -1.359570 -39.796059 -4.369333
				CHANNELS 3 Zrotation Yrotation Xrotation
				JOINT LeftToe
				{
					OFFSET 2.635814 -5.579078 11.928840
					CHANNELS 3 Zrotation Yrotation Xrotation
					End Site
					{
						OFFSET 0.000000 0.000000 0.000000
					}
				}
			}
		}
	}
	JOINT RightUpLeg
	{
		OFFSET -6.767048 -9.052170 -0.431982
		CHANNELS 3 Zrotation Yrotation Xrotation
		JOINT RightLeg
		{
			OFFSET -3.829005 -38.256897 -0.885003
			CHANNELS 3 Zrotation Yrotation Xrotation
			JOINT RightFoot
			{
				OFFSET 1.577377 -39.841461 -4.231180
				CHANNELS 3 Zrotation Yrotation Xrotation
				JOINT RightToe
				{
					OFFSET -2.537174 -4.814398 12.334795
					CHANNELS 3 Zrotation Yrotation Xrotation
					End Site
					{
						OFFSET 0.000000 0.000000 0.000000
					}
				}
			}
		}
	}
	JOINT Spine
	{
		OFFSET -0.253288 10.896323 -2.669631
		CHANNELS 3 Zrotation Yrotation Xrotation
		JOINT Spine1
		{
			OFFSET 0.548704 13.518043 0.109247
			CHANNELS 3 Zrotation Yrotation Xrotation
			JOINT Spine2
			{
				OFFSET 0.145701 5.292222 2.542457
				CHANNELS 3 Zrotation Yrotation Xrotation
				JOINT Neck
				{
					OFFSET -0.277840 21.387037 -4.285703
					CHANNELS 3 Zrotation Yrotation Xrotation
					JOINT Head
					{
						OFFSET 0.515184 6.496960 5.134897
						CHANNELS 3 Zrotation Yrotation Xrotation
						End Site
						{
							OFFSET 0.000000 0.000000 0.000000
						}
					}
				}
				JOINT LeftShoulder
				{
					OFFSET 7.884473 12.174932 -3.408961
					CHANNELS 3 Zrotation Yrotation Xrotation
					JOINT LeftArm
					{
						OFFSET 9.097692 3.046888 -0.886815
						CHANNELS 3 Zrotation Yrotation Xrotation
						JOINT LeftForeArm
						{
							OFFSET 25.961220 -1.277207 -2.745643
							CHANNELS 3 Zrotation Yrotation Xrotation
							JOINT LeftHand
							{
								OFFSET 24.923361 0.898606 -0.117091
								CHANNELS 3 Zrotation Yrotation Xrotation
								End Site
								{
									OFFSET 0.000000 0.000000 0.000000
								}
							}
						}
					}
				}
				JOINT RightShoulder
				{
					OFFSET -8.175920 11.883285 -3.861528
					CHANNELS 3 Zrotation Yrotation Xrotation
					JOINT RightArm
					{
						OFFSET -9.601238 3.255117 -0.914307
						CHANNELS 3 Zrotation Yrotation Xrotation
						JOINT RightForeArm
						{
							OFFSET -25.374195 -1.332924 -2.140099
							CHANNELS 3 Zrotation Yrotation Xrotation
							JOINT RightHand
							{
								OFFSET -25.529810 0.777228 -0.555919
								CHANNELS 3 Zrotation Yrotation Xrotation
								End Site
								{
									OFFSET 0.000000 0.000000 0.000000
								}
							}
						}
					}
				}
			}
		}
	}
}
MOTION
Frames: 17
Frame Time: 0.033333
-20.579668 111.112617 30.377392 97.991385 -27.055715 171.760788 22.210437 7.844512 -58.313954 -11.071727 17.601679 90.553357 -12.122847 -24.827619 -9.295678 nan nan nan -1.882343 -3.962810 -6.370526 5.250492 -1.076399 26.939510 1.623047 7.153588 -28.832551 nan nan nan -3.676876 2.639841 8.733810 7.829048 -15.932762 -2.217327 5.149129 -4.901546 -11.439501 -2.355880 -5.211736 -28.313071 7.309866 -4.420109 -21.488699 14.585947 -34.482128 -10.133025 -53.461409 -45.574137 -1.808226 99.548846 -52.068118 -61.600770 24.101642 -12.102314 -12.140749 -17.297344 23.954764 -16.026559 27.307327 48.574930 -25.366128 -87.919107 50.222381 -43.587752 22.311466 -1.230835 5.560536 
-20.783571 111.096878 30.382175 98.121798 -27.262918 171.657885 22.333166 7.773155 -58.635052 -10.986878 17.674150 90.980696 -12.186021 -24.896748 -9.290864 nan nan nan -1.796093 -3.938500 -6.260165 5.173443 -1.384371 26.951792 1.567884 7.056879 -29.301818 nan nan nan -3.693691 2.693059 8.901395 7.847403 -15.981375 -2.210437 5.147545 -4.910384 -11.452801 -2.349799 -5.091104 -28.538932 7.381182 -4.682412 -21.181617 15.083376 -34.510898 -10.419860 -54.159049 -45.840377 -1.359418 99.368308 -51.876786 -61.053302 25.052915 -12.150415 -11.850592 -17.674744 23.694641 -16.278611 27.227238 48.402163 -25.633998 -87.436910 50.019410 -43.122478 22.236012 -1.191907 5.268873 
-20.965155 111.075264 30.390278 98.318400 -27.459872 171.506734 22.398766 7.763071 -58.939643 -10.942003 17.616976 91.406511 -12.188776 -24.862874 -9.386881 nan nan nan -1.573652 -3.924112 -6.150132 5.112592 -1.505646 26.964416 1.355495 6.883243 -29.666780 nan nan nan -3.612913 2.702212 9.170625 7.847819 -16.011903 -2.387756 5.178724 -4.939744 -11.436398 -2.393487 -5.181735 -28.513591 7.396836 -4.677301 -21.048682 15.291265 -34.740344 -10.523923 -54.514182 -45.893021 -1.214933 99.451509 -51.792628 -60.751974 25.715190 -11.987210 -11.210624 -17.966876 23.670661 -16.458234 26.923397 48.096177 -26.061869 -86.966265 49.899713 -42.747965 22.296292 -1.261740 4.983814 
-21.142439 111.056709 30.357567 98.565413 -27.730573 171.304766 22.414688 7.782065 -59.249676 -10.861943 17.443334 91.872275 -12.265860 -24.901655 -9.430046 nan nan nan -1.271357 -4.005734 -6.031676 5.016689 -1.648124 27.028788 1.000874 6.782317 -30.071996 nan nan nan -3.531034 2.714048 9.349712 7.858820 -16.106329 -2.322536 5.235166 -4.969548 -11.589280 -2.432480 -5.475265 -28.171889 7.422982 -4.708867 -21.217525 15.215424 -35.013593 -10.467315 -54.619370 -45.985773 -1.067844 99.623718 -51.747303 -60.732482 25.665863 -11.737097 -10.802251 -18.058710 23.767443 -16.481653 26.224058 47.738290 -26.649856 -86.605433 49.824431 -42.629260 22.211921 -1.108142 4.659932 
-21.340721 111.044868 30.359812 98.723995 -27.872654 171.119346 22.337238 7.884437 -59.556126 -10.747434 17.241025 92.392297 -12.424375 -24.876901 -9.403339 nan nan nan -1.095250 -3.986136 -5.994010 4.858135 -1.975834 27.216236 0.855573 6.665831 -30.500662 nan nan nan -3.491064 2.695952 9.674870 7.855727 -16.074018 -2.453743 5.237196 -4.916726 -11.523331 -2.311278 -5.492252 -28.191082 7.442936 -4.873244 -21.285571 15.153682 -35.119584 -10.604653 -54.904886 -46.267857 -0.629131 99.373290 -51.768613 -60.321346 25.615596 -11.947244 -10.751103 -18.014914 23.754145 -16.499258 25.357436 47.460252 -27.195439 -86.268565 49.673235 -42.479178 21.899202 -0.711948 4.316993 
-21.537212 111.015236 30.359808 98.867261 -27.897496 171.018488 22.342281 8.077223 -59.875970 -10.629995 17.095739 92.897918 -12.504021 -24.844230 -9.365919 nan nan nan -0.930276 -3.906621 -6.098115 4.764413 -2.247036 27.485686 0.763890 6.622675 -30.820824 nan nan nan -3.518874 2.716420 9.914061 7.865694 -15.943069 -2.776089 5.241075 -4.875054 -11.213678 -2.184290 -5.483590 -28.285234 7.505998 -4.999847 -21.330109 15.258161 -35.173296 -10.852482 -55.455097 -46.552764 -0.077800 98.971876 -51.849163 -59.805601 25.901559 -12.181715 -10.588010 -18.104514 23.578927 -16.656138 24.903443 47.192624 -27.533274 -85.949618 49.563688 -42.305361 21.943322 -0.555303 4.078967 
-21.742998 110.981201 30.357798 99.067819 -27.966395 170.928466 22.473607 8.183974 -60.266174 -10.575525 17.054697 93.390167 -12.339569 -24.775918 -9.433892 nan nan nan -0.757726 -3.908371 -6.171131 4.847772 -2.343896 27.628444 0.550381 6.585533 -31.021837 nan nan nan -3.374983 2.759045 10.011155 7.797045 -15.923796 -2.888348 5.194648 -4.856335 -11.140378 -2.251687 -5.864280 -27.940252 7.761422 -4.967190 -21.490095 15.642217 -35.374021 -10.890707 -55.788794 -46.603050 0.102607 98.910065 -51.881086 -59.735659 26.169004 -11.951072 -10.576601 -18.548305 23.489682 -16.814998 24.854799 46.844606 -27.910464 -85.651067 49.480113 -42.124430 22.043093 -0.767907 4.036789 
-21.942562 110.916145 30.374323 99.264982 -27.967001 170.779194 22.593788 8.325947 -60.587172 -10.540363 16.985669 93.831803 -12.278998 -24.728571 -9.417288 nan nan nan -0.575763 -3.853718 -6.182148 4.956948 -2.374561 27.718248 0.438667 6.405224 -31.352088 nan nan nan -3.173823 2.778160 10.271527 7.704635 -15.851920 -2.900820 5.145287 -4.818657 -11.296656 -2.307039 -6.129569 -27.846605 8.006796 -4.922369 -21.502720 16.034790 -35.617407 -10.744410 -55.751408 -46.642566 -0.086943 99.008199 -51.860208 -59.710080 26.205260 -11.939806 -10.727208 -18.905380 23.578733 -16.762396 24.481188 46.519367 -28.544588 -85.352123 49.330931 -41.864558 21.906021 -0.740439 3.942931 
-22.102024 110.837692 30.411516 99.465036 -27.865856 170.500449 22.740055 8.513571 -60.666653 -10.461094 16.903121 94.189690 -12.278847 -24.742548 -9.378170 nan nan nan -0.322701 -3.672615 -6.075590 4.953657 -2.352792 27.815008 0.470062 6.185069 -31.671755 nan nan nan -3.106296 2.727947 10.936235 7.691224 -15.627431 -3.216617 5.260569 -4.754236 -11.341721 -2.244785 -6.320823 -27.876848 8.025567 -4.798351 -21.402090 15.949119 -35.778842 -10.745464 -55.926320 -46.674771 0.042253 98.978793 -51.952564 -59.362927 26.304215 -12.217626 -10.478668 -19.117967 23.784400 -16.819375 23.921143 46.090443 -29.021194 -84.959648 49.087479 -41.515463 21.747595 -0.506498 3.943780 
-22.242535 110.826561 30.429235 99.641300 -27.876793 170.265527 22.939382 8.566334 -60.713441 -10.340564 16.944331 94.493958 -12.144593 -24.857731 -9.477689 nan nan nan -0.143193 -3.542736 -5.885276 4.916139 -2.336941 27.771013 0.607109 6.162871 -31.783163 nan nan nan -3.187629 2.691105 11.409455 7.727266 -15.501816 -3.520435 5.452896 -4.788150 -11.069826 -2.041573 -6.536635 -27.906228 7.913684 -4.687384 -21.544201 15.398053 -35.666610 -11.173781 -56.771319 -46.600270 0.951882 99.060624 -52.314932 -59.122774 26.351303 -12.282628 -9.752580 -19.295701 23.771251 -17.266858 23.744133 45.759123 -28.956815 -84.601830 48.866743 -41.330434 21.657981 -0.599848 4.456255 
-22.439823 110.834709 30.432323 99.732911 -27.990107 170.240944 23.173730 8.539945 -60.996821 -10.240168 17.180249 94.823139 -12.007828 -25.029435 -9.511575 nan nan nan -0.114969 -3.612723 -5.863658 4.942237 -2.313879 27.737595 0.514211 6.161814 -31.951294 nan nan nan -3.131401 2.752865 11.360605 7.623941 -15.545300 -3.346723 5.380013 -4.833900 -11.039184 -1.909348 -6.764066 -27.946474 7.977074 -4.704750 -21.579799 15.267936 -35.709043 -11.340161 -57.331452 -46.606541 1.528984 99.303341 -52.429036 -59.179976 26.316909 -12.226435 -9.529671 -19.482190 23.638656 -17.424523 23.560706 45.546049 -29.194754 -84.384047 48.719204 -41.153599 21.820651 -0.784571 4.667442 
-22.637611 110.835762 30.454649 99.857184 -28.032096 170.190050 23.407178 8.560615 -61.291286 -10.166671 17.336415 95.154545 -12.168127 -25.127912 -9.410458 nan nan nan 0.004638 -3.657194 -5.901801 4.914376 -2.205940 27.774496 0.349476 6.011819 -32.343391 nan nan nan -3.131826 2.844315 11.429972 7.692718 -15.522992 -3.289187 5.385166 -4.826416 -11.030537 -1.825533 -6.682551 -28.252983 7.965740 -4.897184 -21.461905 14.928363 -35.761013 -11.201058 -57.652446 -46.795916 2.041714 99.518991 -52.525730 -59.374571 26.018967 -12.105864 -9.900932 -19.124372 23.673593 -17.315694 22.356789 45.451589 -29.753808 -83.834999 48.627031 -40.769112 21.818194 -0.789121 4.481073 
-22.817053 110.778236 30.480446 99.999523 -27.881334 169.961453 23.557419 8.783331 -61.381563 -10.112344 17.263301 95.531033 -12.324866 -25.150903 -9.362798 nan nan nan 0.248732 -3.614527 -5.854743 4.797806 -2.050531 27.927882 0.069566 5.887907 -32.803499 nan nan nan -2.958012 2.896377 11.751271 7.582124 -15.439062 -3.009631 5.328496 -4.703923 -11.414451 -1.904176 -6.894929 -28.061755 8.278046 -4.952358 -21.455596 15.225669 -36.186147 -10.812534 -57.304534 -46.749215 1.580526 99.940427 -52.522670 -59.850110 25.494142 -11.918971 -10.539839 -19.376006 23.909070 -17.108700 21.705312 45.049143 -30.622655 -83.476398 48.487962 -40.463862 21.861202 -0.696632 4.172968 
-23.013296 110.904129 30.453264 100.145952 -28.441705 170.074943 23.554248 8.308990 -62.114067 -10.009009 17.366553 95.912095 -12.110230 -25.143999 -9.447738 nan nan nan 0.022525 -4.066843 -5.840180 4.963022 -2.309951 27.762011 -0.008106 6.178357 -32.990355 nan nan nan -2.692408 2.929537 11.347923 7.473098 -15.869545 -3.047617 5.189815 -4.982913 -11.055887 -1.833562 -7.117616 -28.057255 8.355546 -4.834151 -21.669546 14.633495 -36.116625 -10.935434 -57.602278 -46.642698 1.974640 100.349263 -52.918690 -60.198110 24.806004 -11.941188 -10.392515 -19.562208 23.822718 -17.124398 21.376202 44.953635 -31.031412 -83.214295 48.344615 -40.409388 21.886782 -0.757877 4.262700 
-23.136478 110.846512 30.474611 100.143540 -28.170369 169.719703 23.596335 8.654301 -61.875338 -10.036665 17.229906 96.222751 -12.159656 -25.157140 -9.452854 nan nan nan 0.083151 -3.963249 -5.570412 4.895213 -2.039979 27.895190 -0.028018 6.388851 -33.073036 nan nan nan -2.723722 2.973105 12.121914 7.277016 -15.627822 -3.205714 5.287257 -4.903550 -11.111528 -1.642147 -7.534733 -27.764231 8.553999 -4.678379 -21.856712 14.469270 -36.503517 -10.770359 -57.425285 -46.461744 1.655610 100.666231 -52.991549 -60.219781 25.019007 -12.333839 -9.986724 -19.912222 24.039382 -17.194390 21.323357 44.407610 -31.614589 -83.198746 48.308541 -40.486321 22.051680 -0.600210 4.119142 
-23.273245 110.847557 30.499464 100.143279 -28.119232 169.572579 23.618196 8.754932 -61.947411 -9.983979 17.183835 96.520963 -12.313683 -25.230856 -9.374960 nan nan nan 0.027327 -3.993076 -5.510938 4.897592 -1.866457 28.070804 -0.051462 6.694121 -33.388564 nan nan nan -2.729630 3.092473 12.464156 7.093438 -15.606577 -3.078282 5.327799 -4.876135 -11.383680 -1.476684 -7.840146 -27.261257 8.818059 -4.532145 -22.153464 14.178843 -37.011398 -10.654955 -57.374599 -46.250775 1.569353 100.834947 -52.933267 -60.172717 25.375889 -12.615336 -9.315760 -20.032104 24.392375 -17.166214 20.943250 43.769535 -32.265215 -83.014939 48.308922 -40.386636 22.555557 -0.634241 4.063656 
-23.421392 110.811897 30.498503 100.317838 -27.993379 169.397974 23.779825 9.018079 -62.080669 -9.988449 17.041375 96.824288 -12.556523 -25.341608 -9.328530 nan nan nan 0.200208 -3.853836 -5.533788 4.899943 -1.742637 28.259150 -0.035728 6.997318 -33.741336 nan nan nan -2.698670 3.100978 12.762126 7.017956 -15.504675 -2.962309 5.376539 -4.807410 -11.618290 -1.402551 -7.960557 -26.915380 9.020952 -4.455920 -22.374225 13.987892 -37.199912 -10.731957 -57.546823 -46.128216 1.810713 100.922070 -53.048085 -60.391199 25.239517 -12.552911 -9.144568 -20.125676 24.580143 -17.214704 20.650950 43.328462 -32.536466 -82.673120 48.189718 -40.344133 22.480640 -0.788340 4.076840 
